<svg xmlns="http://www.w3.org/2000/svg" viewBox="0 0 512 512" width="512" height="512">
  <defs>
    <radialGradient id="parchmentGrad" cx="50%" cy="45%" r="65%">
      <stop offset="0%" stop-color="#FBF6EE"/>
      <stop offset="60%" stop-color="#F3E9D9"/>
      <stop offset="100%" stop-color="#E8D5C4"/>
    </radialGradient>
    <linearGradient id="crimsonGrad" x1="0%" y1="0%" x2="100%" y2="100%">
      <stop offset="0%" stop-color="#8B1A2A"/>
      <stop offset="50%" stop-color="#6B0F1A"/>
      <stop offset="100%" stop-color="#4A0A12"/>
    </linearGradient>
    <linearGradient id="goldGrad" x1="0%" y1="0%" x2="100%" y2="100%">
      <stop offset="0%" stop-color="#F0E0B0"/>
      <stop offset="40%" stop-color="#D4AF37"/>
      <stop offset="100%" stop-color="#B8860B"/>
    </linearGradient>
    <linearGradient id="goldShine" x1="0%" y1="0%" x2="0%" y2="100%">
      <stop offset="0%" stop-color="#F8F0D0"/>
      <stop offset="50%" stop-color="#D4AF37"/>
      <stop offset="100%" stop-color="#9A7736"/>
    </linearGradient>
    <filter id="goldGlow" x="-20%" y="-20%" width="140%" height="140%">
      <feGaussianBlur stdDeviation="4" result="blur"/>
      <feMerge>
        <feMergeNode in="blur"/>
        <feMergeNode in="SourceGraphic"/>
      </feMerge>
    </filter>
    <filter id="innerShadow">
      <feOffset dx="0" dy="2"/>
      <feGaussianBlur stdDeviation="3"/>
      <feComposite operator="arithmetic" k2="-1" k3="1" in2="SourceAlpha"/>
      <feFlood flood-color="#6B0F1A" flood-opacity="0.15"/>
      <feComposite operator="in" in2="SourceAlpha"/>
      <feMerge>
        <feMergeNode/>
        <feMergeNode in="SourceGraphic"/>
      </feMerge>
    </filter>
  </defs>

  <!-- Background: rounded square with crimson velvet -->
  <rect x="16" y="16" width="480" height="480" rx="96" ry="96" fill="url(#crimsonGrad)"/>
  <rect x="16" y="16" width="480" height="480" rx="96" ry="96" fill="none" stroke="url(#goldGrad)" stroke-width="3"/>

  <!-- Inner parchment circle -->
  <circle cx="256" cy="256" r="180" fill="url(#parchmentGrad)" filter="url(#innerShadow)"/>
  <circle cx="256" cy="256" r="180" fill="none" stroke="url(#goldGrad)" stroke-width="2.5"/>
  <circle cx="256" cy="256" r="172" fill="none" stroke="#B8860B" stroke-width="0.8" stroke-dasharray="2,4"/>

  <!-- Manuscript leaf motifs at corners of the circle -->
  <g fill="url(#goldGrad)" opacity="0.5">
    <!-- Top leaf -->
    <path d="M 256 82 Q 240 95 248 110 Q 256 100 264 110 Q 272 95 256 82 Z"/>
    <!-- Bottom leaf -->
    <path d="M 256 430 Q 240 417 248 402 Q 256 412 264 402 Q 272 417 256 430 Z"/>
    <!-- Left leaf -->
    <path d="M 82 256 Q 95 240 110 248 Q 100 256 110 264 Q 95 272 82 256 Z"/>
    <!-- Right leaf -->
    <path d="M 430 256 Q 417 240 402 248 Q 412 256 402 264 Q 417 272 430 256 Z"/>
  </g>

  <!-- Syriac Cross: eight-pointed (cross with flared ends) -->
  <g filter="url(#goldGlow)">
    <!-- Vertical bar -->
    <path d="M 256 120 L 276 140 L 276 372 L 236 372 L 236 140 Z" fill="url(#goldShine)" stroke="#B8860B" stroke-width="1.5"/>
    <!-- Horizontal bar -->
    <path d="M 140 220 L 372 220 L 372 260 L 140 260 Z" fill="url(#goldShine)" stroke="#B8860B" stroke-width="1.5"/>

    <!-- Flared/stepped ends (Syriac style) -->
    <!-- Top stepped flare -->
    <path d="M 236 140 L 256 100 L 276 140 Z" fill="url(#goldGrad)" stroke="#B8860B" stroke-width="1"/>
    <path d="M 244 120 L 256 108 L 268 120 Z" fill="#F0E0B0"/>

    <!-- Bottom stepped flare -->
    <path d="M 236 372 L 256 412 L 276 372 Z" fill="url(#goldGrad)" stroke="#B8860B" stroke-width="1"/>
    <path d="M 244 392 L 256 404 L 268 392 Z" fill="#F0E0B0"/>

    <!-- Left stepped flare -->
    <path d="M 140 220 L 100 240 L 140 260 Z" fill="url(#goldGrad)" stroke="#B8860B" stroke-width="1"/>
    <path d="M 120 228 L 108 240 L 120 252 Z" fill="#F0E0B0"/>

    <!-- Right stepped flare -->
    <path d="M 372 220 L 412 240 L 372 260 Z" fill="url(#goldGrad)" stroke="#B8860B" stroke-width="1"/>
    <path d="M 392 228 L 404 240 L 392 252 Z" fill="#F0E0B0"/>
  </g>

  <!-- Center medallion -->
  <circle cx="256" cy="240" r="24" fill="url(#crimsonGrad)" stroke="url(#goldGrad)" stroke-width="2"/>
  <circle cx="256" cy="240" r="18" fill="none" stroke="#D4AF37" stroke-width="0.8"/>

  <!-- Small gold dot in center -->
  <circle cx="256" cy="240" r="5" fill="#F0E0B0"/>

  <!-- Decorative manuscript vine motifs along the cross arms -->
  <g fill="url(#goldGrad)" opacity="0.4">
    <!-- Small vines near top -->
    <circle cx="256" cy="165" r="3"/>
    <circle cx="246" cy="172" r="2"/>
    <circle cx="266" cy="172" r="2"/>
    <!-- Near bottom -->
    <circle cx="256" cy="350" r="3"/>
    <circle cx="246" cy="343" r="2"/>
    <circle cx="266" cy="343" r="2"/>
    <!-- Near left -->
    <circle cx="170" cy="240" r="3"/>
    <circle cx="177" cy="230" r="2"/>
    <circle cx="177" cy="250" r="2"/>
    <!-- Near right -->
    <circle cx="342" cy="240" r="3"/>
    <circle cx="335" cy="230" r="2"/>
    <circle cx="335" cy="250" r="2"/>
  </g>

  <!-- Outer decorative border ring -->
  <rect x="32" y="32" width="448" height="448" rx="80" ry="80" fill="none" stroke="url(#goldGrad)" stroke-width="1" stroke-dasharray="4,6" opacity="0.4"/>
</svg>
